<?xml version="1.0" encoding="utf-8"?>
<!-- Generator: Adobe Illustrator 24.1.1, SVG Export Plug-In . SVG Version: 6.00 Build 0)  -->
<svg version="1.1"
	 id="svg5270" inkscape:export-filename="\\192.168.1.192\MediaArkiv\Logotyper\SpiritOfHvenLogotypes4print\spirit-of-hven-green.png" inkscape:export-xdpi="96" inkscape:export-ydpi="96" inkscape:version="0.92.4 (5da689c313, 2019-01-14)" sodipodi:docname="spirit-of-hven-black.svg" xmlns:cc="http://creativecommons.org/ns#" xmlns:dc="http://purl.org/dc/elements/1.1/" xmlns:inkscape="http://www.inkscape.org/namespaces/inkscape" xmlns:rdf="http://www.w3.org/1999/02/22-rdf-syntax-ns#" xmlns:sodipodi="http://sodipodi.sourceforge.net/DTD/sodipodi-0.dtd" xmlns:svg="http://www.w3.org/2000/svg"
	 xmlns="http://www.w3.org/2000/svg" xmlns:xlink="http://www.w3.org/1999/xlink" x="0px" y="0px" viewBox="0 0 226.8 90.7"
	 style="enable-background:new 0 0 226.8 90.7;" xml:space="preserve">
<style type="text/css">
	.st0{fill:#D1D3D4;}
	.st1{fill-rule:evenodd;clip-rule:evenodd;fill:#D1D3D4;}
</style>
<sodipodi:namedview  bordercolor="#666666" borderopacity="1.0" id="base" inkscape:current-layer="layer1" inkscape:cx="204.11039" inkscape:cy="61.310172" inkscape:document-units="mm" inkscape:pageopacity="0.0" inkscape:pageshadow="2" inkscape:window-height="1330" inkscape:window-maximized="1" inkscape:window-width="2560" inkscape:window-x="-12" inkscape:window-y="-12" inkscape:zoom="3.959798" pagecolor="#ffffff" showgrid="false" width="80mm">
	</sodipodi:namedview>
<g id="layer1" transform="translate(0,-265)" inkscape:groupmode="layer" inkscape:label="Layer 1">
	<g id="g4859" inkscape:export-xdpi="96" inkscape:export-ydpi="96">
		<g id="g4836">
			<path id="path4168" inkscape:connector-curvature="0" class="st0" d="M0,294.1h18.2v20.6h19.9v-20.6h18.3v59H38.2v-23.9H18.3
				v23.9H0V294.1"/>
			<path id="path4170" inkscape:connector-curvature="0" class="st0" d="M170.3,294.1h17l22.2,32.6v-32.6h17.2v59h-17.2l-22.1-32.5
				v32.5h-17.2L170.3,294.1"/>
			<path id="path4172" inkscape:connector-curvature="0" class="st0" d="M93.7,347.6l0-9.6c0,0,0-0.1,0-0.1c0-1.6,0.8-5.5,7.9-8.3
				c1.1-0.4,2.3-0.8,3.6-1.1l1.2-0.3l-0.3,0c0,0,0.5-0.1,0.9-0.2c0.6-12.6,1.2-26.1,1.2-27.4v-0.1c0,0,0-0.6,0-0.7l0.1-2.5
				c0-1.5-0.1-2.6-0.3-3.3h-5.4l-13.1,42.5l-13.3-42.5H57.2l22.3,59h14.6h2.7C94.9,352,93.7,350.5,93.7,347.6"/>
			<path id="path4174" inkscape:connector-curvature="0" class="st0" d="M167.7,306.7v-12.6h-46.6l-0.3,0.8c0,0.1,0,0.2,0,0.3
				c0,0,1,30.1,1.1,33c0.5,0.1,1,0.2,1,0.2c0,0,0.7,0.2,0.7,0.2c1.3,0.3,2.5,0.7,3.6,1.1c7.2,2.8,8,6.7,8,8.3c0,0,0,0.1,0,0.1v9.6
				c0,2.8-1.2,4.4-3.1,5.5h35.4v-13.4h-30.4v-11.7h28.4v-12h-28.4v-9.4L167.7,306.7"/>
		</g>
		<g id="g4830">
			<path id="path4184" inkscape:connector-curvature="0" class="st0" d="M63.3,279h-0.9v-4.3h0.8c0.6,1.9,1.5,3.6,3.9,3.6
				c1.2,0,2.4-0.8,2.4-2.1c0-1.9-2-2.5-3.5-3.1c-1.9-0.8-3.4-1.9-3.4-4.1c0-2.6,2-3.9,4.4-3.9c1.1,0,2.3,0.2,3.1,1l0.3-0.8h0.9
				l0.1,3.7h-0.9c-0.4-1.6-1.6-3-3.4-3c-1,0-2.1,0.6-2.1,1.7c0,1.6,1.6,2,2.8,2.5c2.2,1,4.3,1.9,4.3,4.7c0,2.8-2.4,4.3-4.9,4.3
				c-1.3,0-2.7-0.5-3.6-1.4L63.3,279"/>
			<path id="path4186" inkscape:connector-curvature="0" class="st0" d="M78.8,271.8c2.1,0,3.2-0.6,3.2-2.8c0-1.7-0.8-2.7-2.6-2.7
				c-0.5,0-0.8,0-0.9,0.1c-0.1,0.1-0.1,0.3-0.1,0.9v4.5L78.8,271.8z M75.1,268.7c0-1.7,0-2.7-2-2.7v-0.7c1.2,0,2.3,0,3.5,0.1
				c1.1,0,2.2-0.1,3.3-0.1c2.5,0,5.5,0.7,5.5,3.8c0,2.9-2.9,3.7-5.2,3.7h-1.9v2.9c0,1.9,0,2.7,2.1,2.6v0.7c-1.3,0-2.5-0.1-3.8-0.1
				c-1.1,0-2.2,0.1-3.4,0.1v-0.7c2,0.1,2-0.9,2-2.6V268.7"/>
			<path id="path4188" inkscape:connector-curvature="0" class="st0" d="M88.2,268.7c0-1.7,0.1-2.7-2-2.7v-0.7
				c1.1,0,2.3,0.1,3.4,0.1c1.2,0,2.5-0.1,3.7-0.1v0.7c-2,0-2,1-2,2.7v7.1c0,1.7,0,2.6,2,2.5v0.7c-1.2,0-2.4-0.1-3.7-0.1
				c-1.1,0-2.3,0.1-3.4,0.1v-0.7c2,0.1,2-0.9,2-2.6L88.2,268.7"/>
			<path id="path4190" inkscape:connector-curvature="0" class="st0" d="M100.3,272c2,0,3-0.8,3-2.8c0-1.9-0.8-2.9-2.8-2.9
				c-0.2,0-0.9,0-1,0.2c-0.1,0.2-0.1,1.6-0.1,1.9v3.6L100.3,272z M106.4,275.8c0.4,0.6,0.9,1.3,1.4,1.8c0.4,0.5,0.7,0.6,1.3,0.7v0.7
				c-0.7,0-1.4-0.1-2.1-0.1c-0.7,0-1.4,0.1-2.1,0.1l-3-4.2c-0.7-1-1.6-2-2.2-2c-0.1,0-0.2,0-0.3,0v2.8c0,1.7,0,2.7,2,2.6v0.7
				c-1.2,0-2.4-0.1-3.6-0.1c-1.2,0-2.4,0.1-3.5,0.1v-0.7c2,0.1,2-0.9,2-2.6v-7c0-1.7,0-2.7-2-2.6v-0.7c1.2,0,2.4,0.1,3.5,0.1
				c1.1,0,2.2-0.1,3.4-0.1c1,0,2.5,0.1,3.4,0.5c1.4,0.5,2.1,1.7,2.1,3.1c0,1.9-1.6,3-3.3,3.3L106.4,275.8"/>
			<path id="path4192" inkscape:connector-curvature="0" class="st0" d="M111.9,268.7c0-1.7,0.1-2.7-2-2.7v-0.7
				c1.1,0,2.3,0.1,3.4,0.1c1.2,0,2.5-0.1,3.7-0.1v0.7c-2,0-2,1-2,2.7v7.1c0,1.7,0,2.6,2,2.5v0.7c-1.2,0-2.4-0.1-3.7-0.1
				c-1.1,0-2.3,0.1-3.4,0.1v-0.7c2,0.1,2-0.9,2-2.6L111.9,268.7"/>
			<path id="path4194" inkscape:connector-curvature="0" class="st0" d="M131.4,269.2h-0.9c-0.2-1.8-1.2-2.9-3-2.9
				c-0.7,0-1-0.1-1.1,0.1c-0.2,0.3-0.1,0.7-0.1,1.4v7.9c0,1.9,0,2.7,2.1,2.6v0.7c-1.2,0-2.5-0.1-3.7-0.1c-1.2,0-2.5,0.1-3.7,0.1
				v-0.7c2.1,0.1,2.1-0.8,2.1-2.6v-7.9c0-0.7,0-1.2-0.1-1.3c-0.1-0.2-0.5-0.2-1.1-0.2c-2-0.2-2.8,1.1-3.1,2.9h-0.9l0.1-4h13.4
				L131.4,269.2"/>
			<path id="path4196" inkscape:connector-curvature="0" class="st0" d="M139.8,272.1c0,2.7,0.7,6.3,4.1,6.3c3.4,0,4.2-3.1,4.2-6
				c0-2.8-0.7-6.3-4.2-6.3C140.6,266.1,139.8,269.4,139.8,272.1z M136.2,272.2c0-4.5,3.6-7.1,7.7-7.1c4.2,0,7.7,2.7,7.7,7.1
				c0,4.4-3.6,7.1-7.8,7.1C139.7,279.3,136.2,276.6,136.2,272.2"/>
			<path id="path4198" inkscape:connector-curvature="0" class="st0" d="M157.2,271.7h0.8c1.1,0,1.8-0.6,2.1-2.3h0.8
				c0,0.9-0.1,1.9-0.1,2.8c0,0.9,0.1,1.8,0.1,2.7h-0.8c-0.1-1.3-0.7-2.2-2-2.2h-0.9v3.1c0,1.9,0,2.7,2.1,2.6v0.7
				c-1.2,0-2.5-0.1-3.7-0.1c-1.2,0-2.4,0.1-3.5,0.1v-0.7c2,0.1,2-0.9,2-2.6v-7c0-1.7,0-2.7-2-2.6v-0.7c1.2,0,2.4,0.1,3.5,0.1
				c2.6,0,5.1-0.1,7.7-0.1l0.2,3.6h-0.8c-0.5-2.4-2.1-2.6-4.2-2.6c-1.5,0-1.3,0-1.3,1.5L157.2,271.7"/>
		</g>
		<g id="g4015">
			<path id="path4176" inkscape:connector-curvature="0" class="st0" d="M121.1,294.1h-0.3c0,0.3,0,0.5,0.1,0.8L121.1,294.1"/>
			<path id="path4178" inkscape:connector-curvature="0" class="st0" d="M114.4,320v2.1"/>
			<path id="path4180" inkscape:connector-curvature="0" class="st0" d="M131.3,347.6c0,1.3-0.3,1.8-2.1,2.7c0,0.1-1.1,0.5-1.7,0.8
				c-0.4,0.2-0.8,0.3-1.2,0.5c-1.5,0.6-3.2,1-4.7,1.3c-2.1,0.5-4.5,0.8-7.1,0.7v0c0,0,0,0,0,0c0,0,0,0,0,0v0c-2.5,0-4.9-0.3-7.1-0.7
				c-1.5-0.3-3.1-0.7-4.7-1.3c-0.5-0.2-0.9-0.3-1.2-0.5c-0.6-0.2-1.7-0.7-1.7-0.8c-1.9-0.9-2.1-1.4-2.1-2.7c0-0.9,0-9.6,0-9.6
				s-0.3-2.5,5.5-4.8c0,0,0,0,0,0c1-0.4,2.1-0.7,3.1-1c0.2-0.1,0.5-0.1,0.7-0.2c0,0,0,0,0.1,0c1.3-0.3,2.7-0.5,3.8-0.6
				c0,0,1.4-29.2,1.3-30.8c0-0.5,0.9-8.2-2-10.8c-2.9-2.6-8.7-3.2-8.7-3.2l0.4-2.2c0,0,4.3,0.4,9.1,1.4c4.6,0.9,6,5.2,6.1,9.5
				c0.1,2.2,1.2,36.2,1.2,36.2c1.1,0.1,2.4,0.3,3.8,0.6c0,0,0,0,0.1,0c0.2,0.1,0.5,0.1,0.7,0.2c1,0.3,2.1,0.6,3.1,1c0,0,0,0,0,0
				c5.8,2.2,5.5,4.8,5.5,4.8S131.4,346.7,131.3,347.6L131.3,347.6z M133.3,337.9c0-1.1-0.6-4.1-6.7-6.5c-1-0.4-2.1-0.8-3.3-1.1
				c0,0-0.7-0.2-0.7-0.2c-0.8-0.2-1.6-0.3-2.4-0.4c-0.1-3-1.2-34.5-1.2-34.5c-0.2-8.6-4.9-10.8-7.7-11.3c-4.9-0.9-9.1-1.4-9.3-1.4
				l-1.7-0.2l-1.3,6l2,0.2c1.5,0.2,5.8,0.9,7.8,2.7c0.5,0.4,1.4,1.8,1.4,6.1c0,0.8,0,1.7-0.1,2.7l0,0.6c0,0,0,0,0,0
				c0,1.5-0.7,17.5-1.3,29c-0.8,0.1-1.6,0.3-2.3,0.4c-0.1,0-0.8,0.2-0.8,0.2c-1.2,0.3-2.3,0.7-3.3,1.1c-6.1,2.3-6.7,5.4-6.7,6.5
				c0,0.1,0,0.2,0,0.3l0-0.2v9.6c0,2.2,0.8,3.3,3.1,4.4c0.3,0.2,0.8,0.4,2,0.9c0,0,1.2,0.5,1.2,0.5c1.5,0.6,3.2,1.1,5,1.4
				c2.5,0.5,5,0.8,7.5,0.8c2.5,0,5-0.2,7.5-0.8c1.8-0.3,3.5-0.8,5-1.4c0,0,1.3-0.5,1.3-0.5c1.1-0.4,1.7-0.7,2-0.9
				c2.3-1.1,3.1-2.2,3.1-4.4L133.3,337.9l0,0.3C133.3,338.2,133.3,338.1,133.3,337.9"/>
			<path id="path4182" inkscape:connector-curvature="0" class="st1" d="M128.9,339.1c0,0,0.4-2.9-7.7-4.9
				c-3.2-0.1-13.9,4.7-19.8,12.9c-0.9,1.2,0.3,1.7,4.2,3.3c3.9,1.6,8.5,1.6,8.5,1.6c2.4,0.1,4.7-0.2,6.7-0.6
				c1.2-0.2,2.6-0.6,3.8-1.1c0.4-0.1,0.7-0.3,1-0.4c0.5-0.2,0.9-0.4,1.3-0.5c0.1,0,0.1-0.1,0.1-0.1c1.6-0.7,1.7-1.2,1.8-2.3
				C129,345.4,128.9,339.1,128.9,339.1"/>
			<path id="path4200" inkscape:connector-curvature="0" class="st0" d="M114.3,307.5v2.1"/>
			<path id="path4202" inkscape:connector-curvature="0" class="st0" d="M114.4,307.5v2.1"/>
		</g>
	</g>
</g>
</svg>
